<svg xmlns="http://www.w3.org/2000/svg" width="500" height="500" viewBox="0 0 500 500" version="1.1"><path d="M 48.462 16.439 C 47.266 18.959, 45.984 20.048, 43.665 20.514 C 41.924 20.863, 39.649 21.391, 38.608 21.687 C 36.946 22.159, 37.166 22.637, 40.416 25.614 C 42.451 27.479, 43.877 29.391, 43.585 29.863 C 43.292 30.336, 42.850 32.360, 42.602 34.361 C 42.354 36.363, 42.360 38, 42.615 38 C 42.871 38, 44.862 37.091, 47.040 35.980 L 51 33.959 54.960 35.980 C 57.138 37.091, 59.129 38, 59.385 38 C 59.640 38, 59.646 36.363, 59.398 34.361 C 59.150 32.360, 58.711 30.341, 58.423 29.875 C 58.135 29.409, 59.530 27.595, 61.524 25.845 C 64.146 23.543, 64.782 22.468, 63.824 21.959 C 63.096 21.573, 60.858 20.962, 58.851 20.602 C 55.964 20.084, 54.859 19.223, 53.555 16.474 C 52.648 14.563, 51.498 13, 51 13 C 50.502 13, 49.359 14.548, 48.462 16.439 M 115.462 16.439 C 114.266 18.959, 112.984 20.048, 110.665 20.514 C 108.924 20.863, 106.649 21.391, 105.608 21.687 C 103.946 22.159, 104.166 22.637, 107.416 25.614 C 109.451 27.479, 110.877 29.391, 110.585 29.863 C 110.292 30.336, 109.850 32.360, 109.602 34.361 C 109.354 36.363, 109.360 38, 109.615 38 C 109.871 38, 111.862 37.091, 114.040 35.980 L 118 33.959 121.960 35.980 C 124.138 37.091, 126.129 38, 126.385 38 C 126.640 38, 126.646 36.363, 126.398 34.361 C 126.150 32.360, 125.711 30.341, 125.423 29.875 C 125.135 29.409, 126.530 27.595, 128.524 25.845 C 131.146 23.543, 131.782 22.468, 130.824 21.959 C 130.096 21.573, 127.858 20.962, 125.851 20.602 C 122.964 20.084, 121.859 19.223, 120.555 16.474 C 119.648 14.563, 118.498 13, 118 13 C 117.502 13, 116.359 14.548, 115.462 16.439 M 150 58 L 150 77 325 77 L 500 77 500 58 L 500 39 325 39 L 150 39 150 58 M 14.462 44.439 C 13.266 46.959, 11.984 48.048, 9.665 48.514 C 7.924 48.863, 5.649 49.391, 4.608 49.687 C 2.946 50.159, 3.166 50.637, 6.416 53.614 C 8.451 55.479, 9.877 57.391, 9.585 57.863 C 9.292 58.336, 8.850 60.360, 8.602 62.361 C 8.354 64.363, 8.360 66, 8.615 66 C 8.871 66, 10.862 65.091, 13.040 63.980 L 17 61.959 20.960 63.980 C 23.138 65.091, 25.129 66, 25.385 66 C 25.640 66, 25.646 64.363, 25.398 62.361 C 25.150 60.360, 24.711 58.341, 24.423 57.875 C 24.135 57.409, 25.530 55.595, 27.524 53.845 C 30.146 51.543, 30.782 50.468, 29.824 49.959 C 29.096 49.573, 26.858 48.962, 24.851 48.602 C 21.964 48.084, 20.859 47.223, 19.555 44.474 C 18.648 42.563, 17.498 41, 17 41 C 16.502 41, 15.359 42.548, 14.462 44.439 M 81.462 44.439 C 80.266 46.959, 78.984 48.048, 76.665 48.514 C 74.924 48.863, 72.649 49.391, 71.608 49.687 C 69.946 50.159, 70.166 50.637, 73.416 53.614 C 75.451 55.479, 76.877 57.391, 76.585 57.863 C 76.292 58.336, 75.850 60.360, 75.602 62.361 C 75.354 64.363, 75.360 66, 75.615 66 C 75.871 66, 77.862 65.091, 80.040 63.980 L 84 61.959 87.960 63.980 C 90.138 65.091, 92.129 66, 92.385 66 C 92.640 66, 92.646 64.363, 92.398 62.361 C 92.150 60.360, 91.711 58.341, 91.423 57.875 C 91.135 57.409, 92.530 55.595, 94.524 53.845 C 97.146 51.543, 97.782 50.468, 96.824 49.959 C 96.096 49.573, 93.858 48.962, 91.851 48.602 C 88.964 48.084, 87.859 47.223, 86.555 44.474 C 85.648 42.563, 84.498 41, 84 41 C 83.502 41, 82.359 42.548, 81.462 44.439 M 48.462 71.439 C 47.266 73.959, 45.984 75.048, 43.665 75.514 C 41.924 75.863, 39.649 76.391, 38.608 76.687 C 36.946 77.159, 37.166 77.637, 40.416 80.614 C 42.451 82.479, 43.877 84.391, 43.585 84.863 C 43.292 85.336, 42.850 87.360, 42.602 89.361 C 42.354 91.363, 42.360 93, 42.615 93 C 42.871 93, 44.862 92.091, 47.040 90.980 L 51 88.959 54.960 90.980 C 57.138 92.091, 59.129 93, 59.385 93 C 59.640 93, 59.646 91.363, 59.398 89.361 C 59.150 87.360, 58.711 85.341, 58.423 84.875 C 58.135 84.409, 59.530 82.595, 61.524 80.845 C 64.146 78.543, 64.782 77.468, 63.824 76.959 C 63.096 76.573, 60.858 75.962, 58.851 75.602 C 55.964 75.084, 54.859 74.223, 53.555 71.474 C 52.648 69.563, 51.498 68, 51 68 C 50.502 68, 49.359 69.548, 48.462 71.439 M 115.462 71.439 C 114.266 73.959, 112.984 75.048, 110.665 75.514 C 108.924 75.863, 106.649 76.391, 105.608 76.687 C 103.946 77.159, 104.166 77.637, 107.416 80.614 C 109.451 82.479, 110.877 84.391, 110.585 84.863 C 110.292 85.336, 109.850 87.360, 109.602 89.361 C 109.354 91.363, 109.360 93, 109.615 93 C 109.871 93, 111.862 92.091, 114.040 90.980 L 118 88.959 121.960 90.980 C 124.138 92.091, 126.129 93, 126.385 93 C 126.640 93, 126.646 91.363, 126.398 89.361 C 126.150 87.360, 125.711 85.341, 125.423 84.875 C 125.135 84.409, 126.530 82.595, 128.524 80.845 C 131.146 78.543, 131.782 77.468, 130.824 76.959 C 130.096 76.573, 127.858 75.962, 125.851 75.602 C 122.964 75.084, 121.859 74.223, 120.555 71.474 C 119.648 69.563, 118.498 68, 118 68 C 117.502 68, 116.359 69.548, 115.462 71.439 M 14.462 97.439 C 13.266 99.959, 11.984 101.048, 9.665 101.514 C 7.924 101.863, 5.649 102.391, 4.608 102.687 C 2.946 103.159, 3.166 103.637, 6.416 106.614 C 8.451 108.479, 9.877 110.391, 9.585 110.863 C 9.292 111.336, 8.850 113.360, 8.602 115.361 C 8.354 117.363, 8.360 119, 8.615 119 C 8.871 119, 10.862 118.091, 13.040 116.980 L 17 114.959 20.960 116.980 C 23.138 118.091, 25.129 119, 25.385 119 C 25.640 119, 25.646 117.363, 25.398 115.361 C 25.150 113.360, 24.711 111.341, 24.423 110.875 C 24.135 110.409, 25.530 108.595, 27.524 106.845 C 30.146 104.543, 30.782 103.468, 29.824 102.959 C 29.096 102.573, 26.858 101.962, 24.851 101.602 C 21.964 101.084, 20.859 100.223, 19.555 97.474 C 18.648 95.563, 17.498 94, 17 94 C 16.502 94, 15.359 95.548, 14.462 97.439 M 81.462 97.439 C 80.266 99.959, 78.984 101.048, 76.665 101.514 C 74.924 101.863, 72.649 102.391, 71.608 102.687 C 69.946 103.159, 70.166 103.637, 73.416 106.614 C 75.451 108.479, 76.877 110.391, 76.585 110.863 C 76.292 111.336, 75.850 113.360, 75.602 115.361 C 75.354 117.363, 75.360 119, 75.615 119 C 75.871 119, 77.862 118.091, 80.040 116.980 L 84 114.959 87.960 116.980 C 90.138 118.091, 92.129 119, 92.385 119 C 92.640 119, 92.646 117.363, 92.398 115.361 C 92.150 113.360, 91.711 111.341, 91.423 110.875 C 91.135 110.409, 92.530 108.595, 94.524 106.845 C 97.146 104.543, 97.782 103.468, 96.824 102.959 C 96.096 102.573, 93.858 101.962, 91.851 101.602 C 88.964 101.084, 87.859 100.223, 86.555 97.474 C 85.648 95.563, 84.498 94, 84 94 C 83.502 94, 82.359 95.548, 81.462 97.439 M 150 135 L 150 154 325 154 L 500 154 500 135 L 500 116 325 116 L 150 116 150 135 M 48.462 124.439 C 47.266 126.959, 45.984 128.048, 43.665 128.514 C 41.924 128.863, 39.649 129.391, 38.608 129.687 C 36.946 130.159, 37.166 130.637, 40.416 133.614 C 42.451 135.479, 43.877 137.391, 43.585 137.863 C 43.292 138.336, 42.850 140.360, 42.602 142.361 C 42.354 144.363, 42.360 146, 42.615 146 C 42.871 146, 44.862 145.091, 47.040 143.980 L 51 141.959 54.960 143.980 C 57.138 145.091, 59.129 146, 59.385 146 C 59.640 146, 59.646 144.363, 59.398 142.361 C 59.150 140.360, 58.711 138.341, 58.423 137.875 C 58.135 137.409, 59.530 135.595, 61.524 133.845 C 64.146 131.543, 64.782 130.468, 63.824 129.959 C 63.096 129.573, 60.858 128.962, 58.851 128.602 C 55.964 128.084, 54.859 127.223, 53.555 124.474 C 52.648 122.563, 51.498 121, 51 121 C 50.502 121, 49.359 122.548, 48.462 124.439 M 115.462 124.439 C 114.266 126.959, 112.984 128.048, 110.665 128.514 C 108.924 128.863, 106.649 129.391, 105.608 129.687 C 103.946 130.159, 104.166 130.637, 107.416 133.614 C 109.451 135.479, 110.877 137.391, 110.585 137.863 C 110.292 138.336, 109.850 140.360, 109.602 142.361 C 109.354 144.363, 109.360 146, 109.615 146 C 109.871 146, 111.862 145.091, 114.040 143.980 L 118 141.959 121.960 143.980 C 124.138 145.091, 126.129 146, 126.385 146 C 126.640 146, 126.646 144.363, 126.398 142.361 C 126.150 140.360, 125.711 138.341, 125.423 137.875 C 125.135 137.409, 126.530 135.595, 128.524 133.845 C 131.146 131.543, 131.782 130.468, 130.824 129.959 C 130.096 129.573, 127.858 128.962, 125.851 128.602 C 122.964 128.084, 121.859 127.223, 120.555 124.474 C 119.648 122.563, 118.498 121, 118 121 C 117.502 121, 116.359 122.548, 115.462 124.439 M 14.462 152.439 C 13.266 154.959, 11.984 156.048, 9.665 156.514 C 7.924 156.863, 5.649 157.391, 4.608 157.687 C 2.946 158.159, 3.166 158.637, 6.416 161.614 C 8.451 163.479, 9.877 165.391, 9.585 165.863 C 9.292 166.336, 8.850 168.360, 8.602 170.361 C 8.354 172.363, 8.360 174, 8.615 174 C 8.871 174, 10.862 173.091, 13.040 171.980 L 17 169.959 20.960 171.980 C 23.138 173.091, 25.129 174, 25.385 174 C 25.640 174, 25.646 172.363, 25.398 170.361 C 25.150 168.360, 24.711 166.341, 24.423 165.875 C 24.135 165.409, 25.530 163.595, 27.524 161.845 C 30.146 159.543, 30.782 158.468, 29.824 157.959 C 29.096 157.573, 26.858 156.962, 24.851 156.602 C 21.964 156.084, 20.859 155.223, 19.555 152.474 C 18.648 150.563, 17.498 149, 17 149 C 16.502 149, 15.359 150.548, 14.462 152.439 M 81.462 152.439 C 80.266 154.959, 78.984 156.048, 76.665 156.514 C 74.924 156.863, 72.649 157.391, 71.608 157.687 C 69.946 158.159, 70.166 158.637, 73.416 161.614 C 75.451 163.479, 76.877 165.391, 76.585 165.863 C 76.292 166.336, 75.850 168.360, 75.602 170.361 C 75.354 172.363, 75.360 174, 75.615 174 C 75.871 174, 77.862 173.091, 80.040 171.980 L 84 169.959 87.960 171.980 C 90.138 173.091, 92.129 174, 92.385 174 C 92.640 174, 92.646 172.363, 92.398 170.361 C 92.150 168.360, 91.711 166.341, 91.423 165.875 C 91.135 165.409, 92.530 163.595, 94.524 161.845 C 97.146 159.543, 97.782 158.468, 96.824 157.959 C 96.096 157.573, 93.858 156.962, 91.851 156.602 C 88.964 156.084, 87.859 155.223, 86.555 152.474 C 85.648 150.563, 84.498 149, 84 149 C 83.502 149, 82.359 150.548, 81.462 152.439 M 48.462 178.439 C 47.266 180.959, 45.984 182.048, 43.665 182.514 C 41.924 182.863, 39.649 183.391, 38.608 183.687 C 36.946 184.159, 37.166 184.637, 40.416 187.614 C 42.451 189.479, 43.877 191.391, 43.585 191.863 C 43.292 192.336, 42.850 194.360, 42.602 196.361 C 42.354 198.363, 42.360 200, 42.615 200 C 42.871 200, 44.862 199.091, 47.040 197.980 L 51 195.959 54.960 197.980 C 57.138 199.091, 59.129 200, 59.385 200 C 59.640 200, 59.646 198.363, 59.398 196.361 C 59.150 194.360, 58.711 192.341, 58.423 191.875 C 58.135 191.409, 59.530 189.595, 61.524 187.845 C 64.146 185.543, 64.782 184.468, 63.824 183.959 C 63.096 183.573, 60.858 182.962, 58.851 182.602 C 55.964 182.084, 54.859 181.223, 53.555 178.474 C 52.648 176.563, 51.498 175, 51 175 C 50.502 175, 49.359 176.548, 48.462 178.439 M 115.462 178.439 C 114.266 180.959, 112.984 182.048, 110.665 182.514 C 108.924 182.863, 106.649 183.391, 105.608 183.687 C 103.946 184.159, 104.166 184.637, 107.416 187.614 C 109.451 189.479, 110.877 191.391, 110.585 191.863 C 110.292 192.336, 109.850 194.360, 109.602 196.361 C 109.354 198.363, 109.360 200, 109.615 200 C 109.871 200, 111.862 199.091, 114.040 197.980 L 118 195.959 121.960 197.980 C 124.138 199.091, 126.129 200, 126.385 200 C 126.640 200, 126.646 198.363, 126.398 196.361 C 126.150 194.360, 125.711 192.341, 125.423 191.875 C 125.135 191.409, 126.530 189.595, 128.524 187.845 C 131.146 185.543, 131.782 184.468, 130.824 183.959 C 130.096 183.573, 127.858 182.962, 125.851 182.602 C 122.964 182.084, 121.859 181.223, 120.555 178.474 C 119.648 176.563, 118.498 175, 118 175 C 117.502 175, 116.359 176.548, 115.462 178.439 M 150 212 L 150 231 325 231 L 500 231 500 212 L 500 193 325 193 L 150 193 150 212 M 14.462 205.439 C 13.266 207.959, 11.984 209.048, 9.665 209.514 C 7.924 209.863, 5.649 210.391, 4.608 210.687 C 2.946 211.159, 3.166 211.637, 6.416 214.614 C 8.451 216.479, 9.877 218.391, 9.585 218.863 C 9.292 219.336, 8.850 221.360, 8.602 223.361 C 8.354 225.363, 8.360 227, 8.615 227 C 8.871 227, 10.862 226.091, 13.040 224.980 L 17 222.959 20.960 224.980 C 23.138 226.091, 25.129 227, 25.385 227 C 25.640 227, 25.646 225.363, 25.398 223.361 C 25.150 221.360, 24.711 219.341, 24.423 218.875 C 24.135 218.409, 25.530 216.595, 27.524 214.845 C 30.146 212.543, 30.782 211.468, 29.824 210.959 C 29.096 210.573, 26.858 209.962, 24.851 209.602 C 21.964 209.084, 20.859 208.223, 19.555 205.474 C 18.648 203.563, 17.498 202, 17 202 C 16.502 202, 15.359 203.548, 14.462 205.439 M 81.462 205.439 C 80.266 207.959, 78.984 209.048, 76.665 209.514 C 74.924 209.863, 72.649 210.391, 71.608 210.687 C 69.946 211.159, 70.166 211.637, 73.416 214.614 C 75.451 216.479, 76.877 218.391, 76.585 218.863 C 76.292 219.336, 75.850 221.360, 75.602 223.361 C 75.354 225.363, 75.360 227, 75.615 227 C 75.871 227, 77.862 226.091, 80.040 224.980 L 84 222.959 87.960 224.980 C 90.138 226.091, 92.129 227, 92.385 227 C 92.640 227, 92.646 225.363, 92.398 223.361 C 92.150 221.360, 91.711 219.341, 91.423 218.875 C 91.135 218.409, 92.530 216.595, 94.524 214.845 C 97.146 212.543, 97.782 211.468, 96.824 210.959 C 96.096 210.573, 93.858 209.962, 91.851 209.602 C 88.964 209.084, 87.859 208.223, 86.555 205.474 C 85.648 203.563, 84.498 202, 84 202 C 83.502 202, 82.359 203.548, 81.462 205.439 M 0 335 C 0 354.250, 0.227 370, 0.506 370 C 0.784 370, 16.756 362.125, 36 352.500 L 70.989 335 115.244 335.035 L 159.500 335.069 79.750 375.138 L 0 415.207 0 424.029 L 0 432.852 16.250 425.011 C 25.188 420.699, 62.200 402.751, 98.500 385.126 L 164.500 353.081 164.756 426.540 L 165.013 500 182.506 500 L 200 500 200 400 L 200 300 100 300 L 0 300 0 335 M 300 400 L 300 500 317.494 500 L 334.987 500 335.244 425.040 L 335.500 350.081 401.500 382.126 C 437.800 399.751, 474.813 417.699, 483.750 422.011 L 500 429.852 500 403.519 L 500 377.187 459.494 356.343 L 418.988 335.500 459.494 335.239 L 500 334.978 500 317.489 L 500 300 400 300 L 300 300 300 400" stroke="none" fill="#ecf0f1" fill-rule="evenodd"/><path d="M 150 19.500 L 150 39 325 39 L 500 39 500 19.500 L 500 0 325 0 L 150 0 150 19.500 M 150 96.500 L 150 116 325 116 L 500 116 500 96.500 L 500 77 325 77 L 150 77 150 96.500 M 150 173.500 L 150 193 325 193 L 500 193 500 173.500 L 500 154 325 154 L 150 154 150 173.500 M 0 265.504 L 0 300 100 300 L 200 300 200 400 L 200 500 250 500 L 300 500 300 400.005 L 300 300.010 400.250 299.755 L 500.500 299.500 500.763 265 L 501.025 230.500 250.513 230.754 L 0 231.008 0 265.504 M 0.450 265.500 C 0.451 284.750, 0.585 292.483, 0.749 282.685 C 0.913 272.888, 0.912 257.138, 0.748 247.685 C 0.584 238.233, 0.450 246.250, 0.450 265.500 M 35.250 352.800 L -0 370.487 -0 392.743 C -0 404.985, 0.112 414.996, 0.250 414.991 C 0.388 414.986, 36.275 397.001, 80 375.025 L 159.500 335.068 115 335.091 L 70.500 335.113 35.250 352.800 M 429 340.579 C 434.775 343.624, 453.113 353.095, 469.750 361.625 L 500 377.136 500 356.068 L 500 335 459.250 335.021 L 418.500 335.043 429 340.579" stroke="none" fill="#f3645c" fill-rule="evenodd"/><path d="M 0 115.500 L 0 231 75 231 L 150 231 150 115.500 L 150 0 75 0 L 0 0 0 115.500 M 48.462 16.439 C 47.266 18.959, 45.984 20.048, 43.665 20.514 C 41.924 20.863, 39.649 21.391, 38.608 21.687 C 36.946 22.159, 37.166 22.637, 40.416 25.614 C 42.451 27.479, 43.877 29.391, 43.585 29.863 C 43.292 30.336, 42.850 32.360, 42.602 34.361 C 42.354 36.363, 42.360 38, 42.615 38 C 42.871 38, 44.862 37.091, 47.040 35.980 L 51 33.959 54.960 35.980 C 57.138 37.091, 59.129 38, 59.385 38 C 59.640 38, 59.646 36.363, 59.398 34.361 C 59.150 32.360, 58.711 30.341, 58.423 29.875 C 58.135 29.409, 59.530 27.595, 61.524 25.845 C 64.146 23.543, 64.782 22.468, 63.824 21.959 C 63.096 21.573, 60.858 20.962, 58.851 20.602 C 55.964 20.084, 54.859 19.223, 53.555 16.474 C 52.648 14.563, 51.498 13, 51 13 C 50.502 13, 49.359 14.548, 48.462 16.439 M 115.462 16.439 C 114.266 18.959, 112.984 20.048, 110.665 20.514 C 108.924 20.863, 106.649 21.391, 105.608 21.687 C 103.946 22.159, 104.166 22.637, 107.416 25.614 C 109.451 27.479, 110.877 29.391, 110.585 29.863 C 110.292 30.336, 109.850 32.360, 109.602 34.361 C 109.354 36.363, 109.360 38, 109.615 38 C 109.871 38, 111.862 37.091, 114.040 35.980 L 118 33.959 121.960 35.980 C 124.138 37.091, 126.129 38, 126.385 38 C 126.640 38, 126.646 36.363, 126.398 34.361 C 126.150 32.360, 125.711 30.341, 125.423 29.875 C 125.135 29.409, 126.530 27.595, 128.524 25.845 C 131.146 23.543, 131.782 22.468, 130.824 21.959 C 130.096 21.573, 127.858 20.962, 125.851 20.602 C 122.964 20.084, 121.859 19.223, 120.555 16.474 C 119.648 14.563, 118.498 13, 118 13 C 117.502 13, 116.359 14.548, 115.462 16.439 M 14.462 44.439 C 13.266 46.959, 11.984 48.048, 9.665 48.514 C 7.924 48.863, 5.649 49.391, 4.608 49.687 C 2.946 50.159, 3.166 50.637, 6.416 53.614 C 8.451 55.479, 9.877 57.391, 9.585 57.863 C 9.292 58.336, 8.850 60.360, 8.602 62.361 C 8.354 64.363, 8.360 66, 8.615 66 C 8.871 66, 10.862 65.091, 13.040 63.980 L 17 61.959 20.960 63.980 C 23.138 65.091, 25.129 66, 25.385 66 C 25.640 66, 25.646 64.363, 25.398 62.361 C 25.150 60.360, 24.711 58.341, 24.423 57.875 C 24.135 57.409, 25.530 55.595, 27.524 53.845 C 30.146 51.543, 30.782 50.468, 29.824 49.959 C 29.096 49.573, 26.858 48.962, 24.851 48.602 C 21.964 48.084, 20.859 47.223, 19.555 44.474 C 18.648 42.563, 17.498 41, 17 41 C 16.502 41, 15.359 42.548, 14.462 44.439 M 81.462 44.439 C 80.266 46.959, 78.984 48.048, 76.665 48.514 C 74.924 48.863, 72.649 49.391, 71.608 49.687 C 69.946 50.159, 70.166 50.637, 73.416 53.614 C 75.451 55.479, 76.877 57.391, 76.585 57.863 C 76.292 58.336, 75.850 60.360, 75.602 62.361 C 75.354 64.363, 75.360 66, 75.615 66 C 75.871 66, 77.862 65.091, 80.040 63.980 L 84 61.959 87.960 63.980 C 90.138 65.091, 92.129 66, 92.385 66 C 92.640 66, 92.646 64.363, 92.398 62.361 C 92.150 60.360, 91.711 58.341, 91.423 57.875 C 91.135 57.409, 92.530 55.595, 94.524 53.845 C 97.146 51.543, 97.782 50.468, 96.824 49.959 C 96.096 49.573, 93.858 48.962, 91.851 48.602 C 88.964 48.084, 87.859 47.223, 86.555 44.474 C 85.648 42.563, 84.498 41, 84 41 C 83.502 41, 82.359 42.548, 81.462 44.439 M 48.462 71.439 C 47.266 73.959, 45.984 75.048, 43.665 75.514 C 41.924 75.863, 39.649 76.391, 38.608 76.687 C 36.946 77.159, 37.166 77.637, 40.416 80.614 C 42.451 82.479, 43.877 84.391, 43.585 84.863 C 43.292 85.336, 42.850 87.360, 42.602 89.361 C 42.354 91.363, 42.360 93, 42.615 93 C 42.871 93, 44.862 92.091, 47.040 90.980 L 51 88.959 54.960 90.980 C 57.138 92.091, 59.129 93, 59.385 93 C 59.640 93, 59.646 91.363, 59.398 89.361 C 59.150 87.360, 58.711 85.341, 58.423 84.875 C 58.135 84.409, 59.530 82.595, 61.524 80.845 C 64.146 78.543, 64.782 77.468, 63.824 76.959 C 63.096 76.573, 60.858 75.962, 58.851 75.602 C 55.964 75.084, 54.859 74.223, 53.555 71.474 C 52.648 69.563, 51.498 68, 51 68 C 50.502 68, 49.359 69.548, 48.462 71.439 M 115.462 71.439 C 114.266 73.959, 112.984 75.048, 110.665 75.514 C 108.924 75.863, 106.649 76.391, 105.608 76.687 C 103.946 77.159, 104.166 77.637, 107.416 80.614 C 109.451 82.479, 110.877 84.391, 110.585 84.863 C 110.292 85.336, 109.850 87.360, 109.602 89.361 C 109.354 91.363, 109.360 93, 109.615 93 C 109.871 93, 111.862 92.091, 114.040 90.980 L 118 88.959 121.960 90.980 C 124.138 92.091, 126.129 93, 126.385 93 C 126.640 93, 126.646 91.363, 126.398 89.361 C 126.150 87.360, 125.711 85.341, 125.423 84.875 C 125.135 84.409, 126.530 82.595, 128.524 80.845 C 131.146 78.543, 131.782 77.468, 130.824 76.959 C 130.096 76.573, 127.858 75.962, 125.851 75.602 C 122.964 75.084, 121.859 74.223, 120.555 71.474 C 119.648 69.563, 118.498 68, 118 68 C 117.502 68, 116.359 69.548, 115.462 71.439 M 14.462 97.439 C 13.266 99.959, 11.984 101.048, 9.665 101.514 C 7.924 101.863, 5.649 102.391, 4.608 102.687 C 2.946 103.159, 3.166 103.637, 6.416 106.614 C 8.451 108.479, 9.877 110.391, 9.585 110.863 C 9.292 111.336, 8.850 113.360, 8.602 115.361 C 8.354 117.363, 8.360 119, 8.615 119 C 8.871 119, 10.862 118.091, 13.040 116.980 L 17 114.959 20.960 116.980 C 23.138 118.091, 25.129 119, 25.385 119 C 25.640 119, 25.646 117.363, 25.398 115.361 C 25.150 113.360, 24.711 111.341, 24.423 110.875 C 24.135 110.409, 25.530 108.595, 27.524 106.845 C 30.146 104.543, 30.782 103.468, 29.824 102.959 C 29.096 102.573, 26.858 101.962, 24.851 101.602 C 21.964 101.084, 20.859 100.223, 19.555 97.474 C 18.648 95.563, 17.498 94, 17 94 C 16.502 94, 15.359 95.548, 14.462 97.439 M 81.462 97.439 C 80.266 99.959, 78.984 101.048, 76.665 101.514 C 74.924 101.863, 72.649 102.391, 71.608 102.687 C 69.946 103.159, 70.166 103.637, 73.416 106.614 C 75.451 108.479, 76.877 110.391, 76.585 110.863 C 76.292 111.336, 75.850 113.360, 75.602 115.361 C 75.354 117.363, 75.360 119, 75.615 119 C 75.871 119, 77.862 118.091, 80.040 116.980 L 84 114.959 87.960 116.980 C 90.138 118.091, 92.129 119, 92.385 119 C 92.640 119, 92.646 117.363, 92.398 115.361 C 92.150 113.360, 91.711 111.341, 91.423 110.875 C 91.135 110.409, 92.530 108.595, 94.524 106.845 C 97.146 104.543, 97.782 103.468, 96.824 102.959 C 96.096 102.573, 93.858 101.962, 91.851 101.602 C 88.964 101.084, 87.859 100.223, 86.555 97.474 C 85.648 95.563, 84.498 94, 84 94 C 83.502 94, 82.359 95.548, 81.462 97.439 M 48.462 124.439 C 47.266 126.959, 45.984 128.048, 43.665 128.514 C 41.924 128.863, 39.649 129.391, 38.608 129.687 C 36.946 130.159, 37.166 130.637, 40.416 133.614 C 42.451 135.479, 43.877 137.391, 43.585 137.863 C 43.292 138.336, 42.850 140.360, 42.602 142.361 C 42.354 144.363, 42.360 146, 42.615 146 C 42.871 146, 44.862 145.091, 47.040 143.980 L 51 141.959 54.960 143.980 C 57.138 145.091, 59.129 146, 59.385 146 C 59.640 146, 59.646 144.363, 59.398 142.361 C 59.150 140.360, 58.711 138.341, 58.423 137.875 C 58.135 137.409, 59.530 135.595, 61.524 133.845 C 64.146 131.543, 64.782 130.468, 63.824 129.959 C 63.096 129.573, 60.858 128.962, 58.851 128.602 C 55.964 128.084, 54.859 127.223, 53.555 124.474 C 52.648 122.563, 51.498 121, 51 121 C 50.502 121, 49.359 122.548, 48.462 124.439 M 115.462 124.439 C 114.266 126.959, 112.984 128.048, 110.665 128.514 C 108.924 128.863, 106.649 129.391, 105.608 129.687 C 103.946 130.159, 104.166 130.637, 107.416 133.614 C 109.451 135.479, 110.877 137.391, 110.585 137.863 C 110.292 138.336, 109.850 140.360, 109.602 142.361 C 109.354 144.363, 109.360 146, 109.615 146 C 109.871 146, 111.862 145.091, 114.040 143.980 L 118 141.959 121.960 143.980 C 124.138 145.091, 126.129 146, 126.385 146 C 126.640 146, 126.646 144.363, 126.398 142.361 C 126.150 140.360, 125.711 138.341, 125.423 137.875 C 125.135 137.409, 126.530 135.595, 128.524 133.845 C 131.146 131.543, 131.782 130.468, 130.824 129.959 C 130.096 129.573, 127.858 128.962, 125.851 128.602 C 122.964 128.084, 121.859 127.223, 120.555 124.474 C 119.648 122.563, 118.498 121, 118 121 C 117.502 121, 116.359 122.548, 115.462 124.439 M 14.462 152.439 C 13.266 154.959, 11.984 156.048, 9.665 156.514 C 7.924 156.863, 5.649 157.391, 4.608 157.687 C 2.946 158.159, 3.166 158.637, 6.416 161.614 C 8.451 163.479, 9.877 165.391, 9.585 165.863 C 9.292 166.336, 8.850 168.360, 8.602 170.361 C 8.354 172.363, 8.360 174, 8.615 174 C 8.871 174, 10.862 173.091, 13.040 171.980 L 17 169.959 20.960 171.980 C 23.138 173.091, 25.129 174, 25.385 174 C 25.640 174, 25.646 172.363, 25.398 170.361 C 25.150 168.360, 24.711 166.341, 24.423 165.875 C 24.135 165.409, 25.530 163.595, 27.524 161.845 C 30.146 159.543, 30.782 158.468, 29.824 157.959 C 29.096 157.573, 26.858 156.962, 24.851 156.602 C 21.964 156.084, 20.859 155.223, 19.555 152.474 C 18.648 150.563, 17.498 149, 17 149 C 16.502 149, 15.359 150.548, 14.462 152.439 M 81.462 152.439 C 80.266 154.959, 78.984 156.048, 76.665 156.514 C 74.924 156.863, 72.649 157.391, 71.608 157.687 C 69.946 158.159, 70.166 158.637, 73.416 161.614 C 75.451 163.479, 76.877 165.391, 76.585 165.863 C 76.292 166.336, 75.850 168.360, 75.602 170.361 C 75.354 172.363, 75.360 174, 75.615 174 C 75.871 174, 77.862 173.091, 80.040 171.980 L 84 169.959 87.960 171.980 C 90.138 173.091, 92.129 174, 92.385 174 C 92.640 174, 92.646 172.363, 92.398 170.361 C 92.150 168.360, 91.711 166.341, 91.423 165.875 C 91.135 165.409, 92.530 163.595, 94.524 161.845 C 97.146 159.543, 97.782 158.468, 96.824 157.959 C 96.096 157.573, 93.858 156.962, 91.851 156.602 C 88.964 156.084, 87.859 155.223, 86.555 152.474 C 85.648 150.563, 84.498 149, 84 149 C 83.502 149, 82.359 150.548, 81.462 152.439 M 48.462 178.439 C 47.266 180.959, 45.984 182.048, 43.665 182.514 C 41.924 182.863, 39.649 183.391, 38.608 183.687 C 36.946 184.159, 37.166 184.637, 40.416 187.614 C 42.451 189.479, 43.877 191.391, 43.585 191.863 C 43.292 192.336, 42.850 194.360, 42.602 196.361 C 42.354 198.363, 42.360 200, 42.615 200 C 42.871 200, 44.862 199.091, 47.040 197.980 L 51 195.959 54.960 197.980 C 57.138 199.091, 59.129 200, 59.385 200 C 59.640 200, 59.646 198.363, 59.398 196.361 C 59.150 194.360, 58.711 192.341, 58.423 191.875 C 58.135 191.409, 59.530 189.595, 61.524 187.845 C 64.146 185.543, 64.782 184.468, 63.824 183.959 C 63.096 183.573, 60.858 182.962, 58.851 182.602 C 55.964 182.084, 54.859 181.223, 53.555 178.474 C 52.648 176.563, 51.498 175, 51 175 C 50.502 175, 49.359 176.548, 48.462 178.439 M 115.462 178.439 C 114.266 180.959, 112.984 182.048, 110.665 182.514 C 108.924 182.863, 106.649 183.391, 105.608 183.687 C 103.946 184.159, 104.166 184.637, 107.416 187.614 C 109.451 189.479, 110.877 191.391, 110.585 191.863 C 110.292 192.336, 109.850 194.360, 109.602 196.361 C 109.354 198.363, 109.360 200, 109.615 200 C 109.871 200, 111.862 199.091, 114.040 197.980 L 118 195.959 121.960 197.980 C 124.138 199.091, 126.129 200, 126.385 200 C 126.640 200, 126.646 198.363, 126.398 196.361 C 126.150 194.360, 125.711 192.341, 125.423 191.875 C 125.135 191.409, 126.530 189.595, 128.524 187.845 C 131.146 185.543, 131.782 184.468, 130.824 183.959 C 130.096 183.573, 127.858 182.962, 125.851 182.602 C 122.964 182.084, 121.859 181.223, 120.555 178.474 C 119.648 176.563, 118.498 175, 118 175 C 117.502 175, 116.359 176.548, 115.462 178.439 M 14.462 205.439 C 13.266 207.959, 11.984 209.048, 9.665 209.514 C 7.924 209.863, 5.649 210.391, 4.608 210.687 C 2.946 211.159, 3.166 211.637, 6.416 214.614 C 8.451 216.479, 9.877 218.391, 9.585 218.863 C 9.292 219.336, 8.850 221.360, 8.602 223.361 C 8.354 225.363, 8.360 227, 8.615 227 C 8.871 227, 10.862 226.091, 13.040 224.980 L 17 222.959 20.960 224.980 C 23.138 226.091, 25.129 227, 25.385 227 C 25.640 227, 25.646 225.363, 25.398 223.361 C 25.150 221.360, 24.711 219.341, 24.423 218.875 C 24.135 218.409, 25.530 216.595, 27.524 214.845 C 30.146 212.543, 30.782 211.468, 29.824 210.959 C 29.096 210.573, 26.858 209.962, 24.851 209.602 C 21.964 209.084, 20.859 208.223, 19.555 205.474 C 18.648 203.563, 17.498 202, 17 202 C 16.502 202, 15.359 203.548, 14.462 205.439 M 81.462 205.439 C 80.266 207.959, 78.984 209.048, 76.665 209.514 C 74.924 209.863, 72.649 210.391, 71.608 210.687 C 69.946 211.159, 70.166 211.637, 73.416 214.614 C 75.451 216.479, 76.877 218.391, 76.585 218.863 C 76.292 219.336, 75.850 221.360, 75.602 223.361 C 75.354 225.363, 75.360 227, 75.615 227 C 75.871 227, 77.862 226.091, 80.040 224.980 L 84 222.959 87.960 224.980 C 90.138 226.091, 92.129 227, 92.385 227 C 92.640 227, 92.646 225.363, 92.398 223.361 C 92.150 221.360, 91.711 219.341, 91.423 218.875 C 91.135 218.409, 92.530 216.595, 94.524 214.845 C 97.146 212.543, 97.782 211.468, 96.824 210.959 C 96.096 210.573, 93.858 209.962, 91.851 209.602 C 88.964 209.084, 87.859 208.223, 86.555 205.474 C 85.648 203.563, 84.498 202, 84 202 C 83.502 202, 82.359 203.548, 81.462 205.439 M 335 425.031 L 335 500.012 417.750 499.756 L 500.500 499.500 500.763 465.959 C 500.965 440.148, 500.735 432.037, 499.763 430.765 C 499.068 429.855, 464.975 412.834, 424 392.939 C 383.025 373.045, 346.238 355.256, 342.250 353.409 L 335 350.050 335 425.031 M 82.750 392.725 L 1 432.412 1 466.206 L 1 500 83 500 L 165 500 165 426.500 C 165 386.075, 164.887 353.009, 164.750 353.019 C 164.613 353.030, 127.712 370.897, 82.750 392.725" stroke="none" fill="#2474ac" fill-rule="evenodd"/></svg>